<?xml version="1.0" standalone="no"?>
<!DOCTYPE svg PUBLIC "-//W3C//DTD SVG 20010904//EN"
 "http://www.w3.org/TR/2001/REC-SVG-20010904/DTD/svg10.dtd">
<svg version="1.0" xmlns="http://www.w3.org/2000/svg"
 width="716.000000pt" height="716.000000pt" viewBox="0 0 716.000000 716.000000"
 preserveAspectRatio="xMidYMid meet">
<metadata>
Created by potrace 1.14, written by Peter Selinger 2001-2017
</metadata>
<g transform="translate(0.000000,716.000000) scale(0.100000,-0.100000)"
fill="#000000" stroke="none">
<path d="M820 7004 c0 -3 11 -22 25 -44 14 -22 25 -41 25 -44 0 -2 25 -45 55
-95 30 -51 55 -93 55 -95 0 -2 37 -66 81 -142 87 -149 384 -662 406 -704 8
-14 25 -43 39 -65 13 -22 35 -61 49 -86 13 -26 30 -53 38 -60 11 -12 151 -14
821 -14 l808 0 53 -90 c29 -49 86 -148 127 -220 41 -71 118 -204 170 -295 53
-91 105 -181 115 -200 27 -47 265 -459 311 -537 32 -54 41 -63 67 -64 136 -3
1517 0 1521 4 3 3 -19 48 -49 99 -30 51 -65 113 -79 138 -14 25 -81 142 -150
260 -211 365 -320 553 -346 600 -14 25 -35 61 -47 80 -12 19 -33 55 -47 80
-14 25 -76 133 -138 240 -62 107 -171 296 -242 420 -71 124 -134 232 -139 240
-43 70 -319 555 -319 562 0 4 -4 8 -10 8 -5 0 -10 6 -10 14 0 12 -230 14
-1595 14 -877 0 -1595 -2 -1595 -4z"/>
<path d="M1544 5564 c-57 -100 -70 -123 -106 -184 -41 -70 -278 -481 -300
-518 -43 -77 -101 -177 -188 -327 -51 -88 -104 -180 -118 -205 -13 -25 -39
-70 -57 -100 -96 -161 -165 -281 -165 -286 0 -3 -8 -18 -19 -32 -10 -15 -29
-47 -43 -72 -39 -71 -370 -644 -398 -690 -28 -47 -140 -248 -140 -253 0 -3 48
-88 106 -189 58 -101 116 -201 129 -223 52 -91 530 -919 574 -993 17 -29 31
-54 31 -56 0 -2 24 -44 54 -93 29 -49 65 -111 81 -138 15 -28 129 -225 253
-440 124 -214 254 -441 290 -503 35 -61 67 -112 71 -112 7 0 20 20 53 79 11
20 41 72 67 116 25 44 51 88 56 97 16 28 194 338 290 503 48 83 97 168 109
190 13 22 64 110 114 195 l90 155 1594 3 1593 2 35 62 c53 94 73 129 102 178
26 45 238 411 489 847 72 126 143 248 157 272 14 25 38 68 55 95 16 28 39 67
50 86 11 19 70 123 132 230 62 107 122 211 133 230 83 146 205 357 212 365 4
6 21 35 37 65 17 30 63 111 102 178 40 68 75 130 77 137 4 10 -152 12 -774 13
l-779 1 -47 -82 c-25 -45 -57 -100 -70 -122 -12 -22 -48 -83 -78 -135 -30 -52
-131 -228 -225 -390 -94 -162 -183 -317 -197 -343 -15 -26 -57 -99 -94 -162
-37 -62 -75 -127 -84 -144 l-17 -31 -814 0 -813 0 -24 -42 c-13 -24 -94 -164
-180 -313 -86 -148 -159 -277 -163 -285 -4 -8 -61 -107 -127 -220 -66 -113
-155 -267 -197 -342 -43 -76 -80 -137 -83 -138 -4 0 -122 198 -206 349 -17 31
-64 112 -104 181 -91 157 -72 123 -304 527 l-197 342 87 153 c48 84 105 181
126 216 21 34 38 64 38 66 0 3 27 50 60 106 33 56 60 106 60 111 0 5 5 9 10 9
6 0 10 5 10 11 0 6 23 49 51 97 29 48 112 193 186 322 74 129 146 252 159 273
l25 38 -32 57 c-17 31 -40 73 -50 92 -11 19 -25 44 -32 54 -40 65 -77 126 -77
130 0 3 -45 82 -101 177 -55 95 -110 191 -123 213 -19 35 -63 109 -101 174 -5
10 -28 49 -50 87 -22 39 -46 82 -55 96 -8 14 -32 57 -54 95 -21 38 -46 80 -55
94 -9 14 -23 37 -30 53 -8 15 -17 27 -21 27 -4 0 -29 -39 -56 -86z"/>
</g>
</svg>
